<?xml version="1.0" standalone="no"?>
<!DOCTYPE svg PUBLIC "-//W3C//DTD SVG 20010904//EN"
 "http://www.w3.org/TR/2001/REC-SVG-20010904/DTD/svg10.dtd">
<svg version="1.0" xmlns="http://www.w3.org/2000/svg"
 width="32.000000pt" height="32.000000pt" viewBox="0 0 32.000000 32.000000"
 preserveAspectRatio="xMidYMid meet">

<g transform="translate(0.000000,32.000000) scale(0.100000,-0.100000)"
fill="#000000" stroke="none">
<path d="M94 266 c-20 -20 -34 -44 -34 -58 0 -50 86 -188 108 -174 21 12 83
126 89 161 5 30 1 39 -30 70 -47 47 -86 48 -133 1z m107 -14 c27 -23 30 -75 6
-99 -9 -9 -30 -16 -47 -16 -40 0 -63 24 -63 64 0 35 31 69 63 69 10 0 28 -8
41 -18z"/>
<path d="M133 223 c-7 -2 -13 -16 -13 -29 0 -21 4 -24 40 -24 36 0 40 3 40 24
0 30 -31 44 -67 29z m42 -22 c7 -12 -12 -24 -25 -16 -11 7 -4 25 10 25 5 0 11
-4 15 -9z"/>
</g>
</svg>
