<svg version="1.1" id="Layer_1" xmlns="http://www.w3.org/2000/svg" xmlns:xlink="http://www.w3.org/1999/xlink" x="0px" y="0px"
	 width="100%" viewBox="0 0 512 512" enable-background="new 0 0 512 512" xml:space="preserve">
<path fill="#000000" opacity="1.000000" stroke="none" 
	d="
M513.000000,383.531342 
	C509.849121,403.006042 502.985443,420.454895 490.853516,435.565125 
	C479.443451,449.776215 465.495667,460.875916 448.680176,468.043030 
	C432.040833,475.135132 414.471344,477.898651 396.569397,476.191559 
	C376.596283,474.286926 358.229980,467.419159 342.058411,455.158417 
	C318.300354,437.145752 303.887909,413.354767 299.960785,383.958038 
	C295.635895,351.583649 303.938965,322.567871 325.913544,297.738434 
	C344.758972,276.444672 368.445953,264.389740 396.382965,261.889893 
	C424.094910,259.410217 449.736755,266.379669 471.995422,283.801758 
	C494.277496,301.242157 507.844727,323.882416 512.399719,351.861908 
	C512.478882,352.348053 512.670349,352.815887 512.904663,353.646118 
	C513.000000,363.687561 513.000000,373.375122 513.000000,383.531342 
M362.945465,428.522217 
	C378.339874,439.362518 395.514099,444.600830 414.170593,442.378540 
	C434.345093,439.975433 451.427765,430.952515 464.098846,414.607544 
	C477.437164,397.401825 482.381317,377.895874 478.828583,356.505615 
	C475.871674,338.702850 467.304718,323.953644 453.264191,312.328918 
	C424.053497,288.144287 383.664856,290.071869 356.697540,314.622711 
	C338.508575,331.181824 330.396545,352.339935 333.271729,377.300568 
	C335.709961,398.467896 345.762421,415.105927 362.945465,428.522217 
z"/>
<path fill="#000000" opacity="1.000000" stroke="none" 
	d="
M1.000000,349.468658 
	C3.598991,347.800171 2.575635,345.162842 3.130964,343.233734 
	C15.864204,299.001038 44.587975,271.275635 89.813957,263.114105 
	C123.440674,257.045776 153.896652,266.193909 179.791153,289.311127 
	C199.361237,306.782227 210.667816,328.643982 214.121887,354.303345 
	C218.130081,384.079346 211.052094,411.369934 192.356049,435.132812 
	C174.556976,457.755707 151.297974,471.531036 122.665276,475.305237 
	C87.542290,479.934937 57.151375,469.920258 31.726345,444.914154 
	C16.437971,429.877686 6.887260,411.928101 2.545207,391.052399 
	C2.420055,390.450714 1.926937,389.925568 1.302697,389.182373 
	C1.000000,375.979095 1.000000,362.958221 1.000000,349.468658 
M142.961975,433.451080 
	C148.221283,430.873657 153.018692,427.602997 157.211945,423.525482 
	C175.045013,406.184631 183.533569,385.448425 180.761398,360.304291 
	C179.019241,344.502563 172.785141,330.762024 162.118683,319.381622 
	C143.616821,299.641357 120.469864,292.059692 93.852898,296.571930 
	C78.044144,299.251892 64.182938,306.786652 53.566181,318.789703 
	C40.504856,333.556549 33.433250,350.816895 34.236866,371.124420 
	C35.205921,395.612610 45.521095,415.091553 65.251595,428.925781 
	C89.628700,446.018097 115.645409,447.463409 142.961975,433.451080 
z"/>
<path fill="#000000" opacity="1.000000" stroke="none" 
	d="
M264.619629,263.389832 
	C276.942047,272.173431 280.206268,283.543549 279.725128,298.353027 
	C278.562714,334.132263 279.351776,369.974731 279.342651,405.791718 
	C279.340973,412.344757 279.316040,412.355957 272.722809,412.361786 
	C261.894440,412.371338 251.061417,412.181000 240.239929,412.454132 
	C235.823288,412.565643 234.549103,411.106110 234.570648,406.743469 
	C234.727676,374.925476 234.605560,343.106140 234.714371,311.287720 
	C234.726639,307.695190 233.931274,304.825012 231.201218,302.428650 
	C218.231155,291.043823 205.089371,279.841675 192.434219,268.115326 
	C182.952667,259.329712 172.076065,251.975800 164.250626,241.461395 
	C151.128662,223.830551 151.644409,199.358582 168.047287,183.525482 
	C188.776794,163.516068 208.798645,142.775253 229.258667,122.483940 
	C235.618271,116.176788 243.503540,113.073387 252.537674,112.608131 
	C261.535980,112.144714 270.138702,113.103096 277.971130,117.927246 
	C284.250916,121.795097 289.119995,127.382256 294.427368,132.317383 
	C308.067291,145.000687 320.549164,158.919922 334.616028,171.166946 
	C349.507019,184.131516 367.034637,191.449448 386.431671,194.760422 
	C392.011383,195.712845 397.681274,195.220779 403.219879,196.578674 
	C405.473480,197.131180 406.320435,197.983612 406.316101,200.159317 
	C406.291992,212.320175 406.255554,224.481552 406.352936,236.641739 
	C406.379517,239.961929 404.545074,240.366150 401.886139,240.389832 
	C381.548248,240.570923 362.170013,236.360916 343.312897,228.754059 
	C321.321869,219.883026 303.987701,204.949554 287.933533,188.125565 
	C285.996429,186.095566 284.119354,183.948715 280.799133,182.287292 
	C265.121246,198.486862 249.331802,214.801712 233.039719,231.635910 
	C243.772980,242.428467 254.076248,252.788651 264.619629,263.389832 
z"/>
<path fill="#000000" opacity="1.000000" stroke="none" 
	d="
M373.099487,94.676735 
	C363.841461,122.980194 328.588867,133.305954 305.206482,115.688225 
	C287.626129,102.442093 283.740326,75.707375 294.242096,58.383289 
	C311.530670,29.863483 351.587067,32.485565 367.026031,55.475559 
	C375.196381,67.641884 376.829376,80.445801 373.099487,94.676735 
z"/>
</svg>