<?xml version="1.0" standalone="no"?>
<!DOCTYPE svg PUBLIC "-//W3C//DTD SVG 20010904//EN"
 "http://www.w3.org/TR/2001/REC-SVG-20010904/DTD/svg10.dtd">
<svg version="1.0" xmlns="http://www.w3.org/2000/svg"
 width="512.000000pt" height="530.000000pt" viewBox="0 0 512.000000 530.000000"
 preserveAspectRatio="xMidYMid meet">

<g transform="translate(0.000000,530.000000) scale(0.100000,-0.100000)"
fill="#000000" stroke="none">
<path d="M2470 5210 l0 -90 -85 0 c-71 0 -85 -3 -85 -16 0 -8 18 -123 40 -254
22 -131 40 -243 40 -249 0 -7 -44 -11 -130 -11 l-130 0 0 -85 0 -85 -175 0
c-151 0 -175 -2 -175 -15 0 -9 32 -204 70 -435 39 -231 70 -424 70 -430 0 -6
-28 -10 -70 -10 -42 0 -70 -4 -70 -10 0 -6 32 -199 70 -430 39 -231 70 -424
70 -430 0 -6 -28 -10 -70 -10 -56 0 -70 -3 -70 -15 0 -9 36 -233 80 -498 l81
-482 -73 -650 -73 -650 -452 -3 -453 -2 0 -85 0 -85 1680 0 1680 0 0 85 0 85
-452 2 -453 3 -73 650 -73 650 81 482 c44 265 80 489 80 498 0 12 -14 15 -70
15 -42 0 -70 4 -70 10 0 6 32 199 70 430 39 231 70 424 70 430 0 6 -28 10 -70
10 -42 0 -70 4 -70 10 0 6 32 199 70 430 39 231 70 426 70 435 0 13 -24 15
-175 15 l-175 0 0 85 0 85 -130 0 c-86 0 -130 4 -130 11 0 6 18 118 40 249 22
131 40 246 40 254 0 13 -14 16 -85 16 l-85 0 0 90 0 90 -90 0 -90 0 0 -90z
m619 -1317 c-32 -192 -59 -351 -59 -355 0 -5 -211 -8 -470 -8 -258 0 -470 3
-470 8 0 4 -27 163 -59 355 l-58 347 587 0 587 0 -58 -347z m51 -554 c0 -11
-25 -168 -55 -349 -30 -181 -55 -331 -55 -334 0 -4 -211 -6 -470 -6 -258 0
-470 2 -470 6 0 3 -25 153 -55 334 -30 181 -55 338 -55 349 0 21 2 21 580 21
578 0 580 0 580 -21z m0 -885 c0 -8 -25 -163 -55 -344 -30 -181 -55 -331 -55
-334 0 -4 -211 -6 -470 -6 -258 0 -470 2 -470 6 0 3 -25 153 -55 334 -30 181
-55 336 -55 344 0 14 62 16 580 16 518 0 580 -2 580 -16z m-115 -916 c33 -275
130 -1180 126 -1183 -6 -6 -1176 -6 -1182 0 -4 3 93 908 126 1183 l6 52 459 0
459 0 6 -52z"/>
<path d="M2442 1384 c-93 -46 -141 -127 -142 -234 0 -110 60 -203 158 -246 48
-22 156 -22 204 0 140 61 200 233 130 367 -66 126 -222 177 -350 113z"/>
</g>
</svg>
