<?xml version="1.0" standalone="no"?>
<!DOCTYPE svg PUBLIC "-//W3C//DTD SVG 20010904//EN"
 "http://www.w3.org/TR/2001/REC-SVG-20010904/DTD/svg10.dtd">
<svg version="1.0" xmlns="http://www.w3.org/2000/svg"
 width="512.000000pt" height="512.000000pt" viewBox="0 0 512.000000 512.000000"
 preserveAspectRatio="xMidYMid meet">

<g transform="translate(0.000000,512.000000) scale(0.100000,-0.100000)"
fill="#000000" stroke="none">
<path d="M2488 5099 c-23 -12 -46 -35 -58 -59 -19 -37 -20 -58 -20 -365 l0
-325 -297 -513 -298 -512 -3 -737 -2 -738 -155 0 -155 0 0 370 c0 352 -1 373
-20 410 -23 45 -80 80 -130 80 -50 0 -107 -35 -130 -80 -16 -32 -20 -59 -20
-145 l0 -105 -150 0 -150 0 0 105 c0 128 -18 173 -80 205 -50 25 -90 25 -140
0 -62 -32 -80 -77 -80 -205 l0 -105 -150 0 -150 0 0 105 c0 86 -4 113 -20 145
-23 45 -80 80 -130 80 -50 0 -107 -35 -130 -80 -20 -39 -20 -56 -20 -1275 0
-1219 0 -1236 20 -1275 13 -26 34 -47 60 -60 39 -20 53 -20 2480 -20 2427 0
2441 0 2480 20 26 13 47 34 60 60 20 39 20 56 20 1275 0 1219 0 1236 -20 1275
-23 45 -80 80 -130 80 -50 0 -107 -35 -130 -80 -16 -32 -20 -59 -20 -145 l0
-105 -150 0 -150 0 0 105 c0 128 -18 173 -80 205 -50 25 -90 25 -140 0 -62
-32 -80 -77 -80 -205 l0 -105 -150 0 -150 0 0 105 c0 86 -4 113 -20 145 -23
45 -80 80 -130 80 -50 0 -107 -35 -130 -80 -19 -37 -20 -58 -20 -410 l0 -370
-155 0 -155 0 0 723 c0 677 -2 724 -19 762 -10 22 -145 260 -299 528 l-282
487 0 235 0 235 101 0 c100 0 100 0 92 -22 -11 -32 -8 -100 6 -126 6 -12 28
-34 48 -49 l36 -28 276 -3 c271 -3 277 -2 320 20 104 54 109 197 9 258 -29 17
-51 20 -172 20 -128 0 -138 1 -131 18 29 73 2 153 -64 190 -38 21 -47 22 -372
22 -313 -1 -336 -2 -371 -21z m244 -1386 l166 -288 -169 -3 c-93 -1 -245 -1
-338 0 l-169 3 166 288 c92 158 169 287 172 287 3 0 80 -129 172 -287z m278
-1228 l0 -635 -450 0 -450 0 0 635 0 635 450 0 450 0 0 -635z m-1810 -1295 l0
-890 -450 0 -450 0 0 890 0 890 450 0 450 0 0 -890z m3620 0 l0 -890 -450 0
-450 0 0 890 0 890 450 0 450 0 0 -890z m-1200 -265 l0 -625 -305 0 -305 0 0
95 c0 173 -36 272 -134 371 -180 179 -452 179 -632 0 -98 -99 -134 -196 -134
-363 l0 -103 -305 0 -305 0 0 625 0 625 1060 0 1060 0 0 -625z m-990 -345 c60
-31 80 -78 80 -190 l0 -90 -150 0 -150 0 0 93 c0 77 4 98 23 131 41 72 121 95
197 56z"/>
<path d="M2516 2780 c-38 -12 -75 -47 -92 -87 -20 -47 -19 -215 2 -259 25 -53
69 -79 134 -79 66 0 109 26 135 81 25 54 19 241 -11 280 -43 58 -107 83 -168
64z"/>
<path d="M706 1740 c-77 -24 -106 -84 -106 -217 0 -109 14 -150 64 -188 38
-28 134 -28 172 0 54 41 65 78 62 202 -3 94 -6 116 -24 139 -43 58 -107 83
-168 64z"/>
<path d="M4326 1740 c-77 -24 -106 -84 -106 -217 0 -109 14 -150 64 -188 38
-28 134 -28 172 0 54 41 65 78 62 202 -3 94 -6 116 -24 139 -43 58 -107 83
-168 64z"/>
</g>
</svg>
