<?xml version="1.0" standalone="no"?>
<!DOCTYPE svg PUBLIC "-//W3C//DTD SVG 20010904//EN"
 "http://www.w3.org/TR/2001/REC-SVG-20010904/DTD/svg10.dtd">
<svg version="1.0" xmlns="http://www.w3.org/2000/svg"
 width="512.000000pt" height="512.000000pt" viewBox="0 0 512.000000 512.000000"
 preserveAspectRatio="xMidYMid meet">

<g transform="translate(0.000000,512.000000) scale(0.100000,-0.100000)"
fill="#000000" stroke="none">
<path d="M2370 5113 c-232 -22 -409 -56 -590 -115 -397 -129 -719 -325 -1019
-621 -412 -407 -661 -908 -742 -1497 -20 -143 -18 -527 4 -670 90 -586 331
-1065 738 -1467 313 -309 651 -510 1073 -637 328 -100 751 -133 971 -77 139
36 238 92 336 190 93 93 137 161 173 269 37 107 49 204 43 322 -9 152 -36 242
-122 415 -77 154 -95 213 -95 314 0 216 153 410 367 466 47 12 150 15 594 15
502 0 541 1 613 20 99 25 174 68 246 140 73 73 115 148 142 252 18 74 20 100
14 233 -11 257 -47 456 -126 695 -49 150 -108 293 -119 288 -3 -2 -34 -18 -68
-35 -68 -36 -219 -83 -264 -83 -15 0 -30 -4 -33 -9 -3 -5 12 -48 33 -97 90
-208 150 -444 171 -673 20 -216 7 -274 -71 -313 -31 -16 -79 -18 -560 -18
-581 0 -636 -4 -778 -61 -288 -115 -494 -368 -547 -671 -19 -109 -14 -275 12
-378 9 -36 51 -139 95 -230 87 -182 104 -245 96 -357 -9 -127 -64 -217 -164
-270 -98 -52 -219 -64 -434 -43 -324 32 -657 143 -919 305 -448 278 -769 683
-929 1171 -148 452 -148 896 0 1348 214 652 723 1161 1375 1375 522 171 1057
143 1559 -80 60 -27 113 -49 117 -49 5 0 8 11 8 24 0 43 50 196 87 269 21 40
39 75 41 78 3 8 -199 94 -305 130 -192 66 -400 110 -608 129 -102 9 -333 11
-415 3z"/>
<path d="M5090 5096 c-78 -77 -219 -132 -495 -191 -301 -64 -403 -105 -499
-201 -99 -99 -144 -223 -132 -369 l6 -80 -1331 -1331 -1331 -1331 142 -143
143 -142 1322 1322 1322 1322 65 -16 c161 -40 309 0 434 117 188 175 310 422
358 725 15 91 33 342 25 342 -3 0 -16 -11 -29 -24z"/>
<path d="M2455 4271 c-112 -29 -208 -107 -257 -210 -29 -59 -32 -75 -32 -156
0 -123 26 -189 108 -271 156 -156 397 -150 546 13 68 74 94 145 94 253 0 118
-27 185 -108 266 -45 44 -77 67 -121 84 -64 24 -179 35 -230 21z"/>
<path d="M1443 3806 c-59 -19 -104 -49 -153 -102 -66 -71 -85 -123 -85 -229 0
-82 3 -97 33 -157 143 -291 568 -245 648 72 40 160 -34 318 -184 392 -55 27
-80 33 -142 35 -42 2 -93 -3 -117 -11z"/>
<path d="M1022 2802 c-141 -51 -231 -190 -220 -337 10 -117 80 -220 187 -272
48 -24 68 -28 141 -28 73 0 93 4 141 28 66 32 132 99 162 165 16 36 21 67 22
132 0 73 -4 93 -28 141 -32 67 -100 132 -165 162 -66 29 -172 33 -240 9z"/>
</g>
</svg>
