<?xml version="1.0" standalone="no"?>
<!DOCTYPE svg PUBLIC "-//W3C//DTD SVG 20010904//EN"
 "http://www.w3.org/TR/2001/REC-SVG-20010904/DTD/svg10.dtd">
<svg version="1.0" xmlns="http://www.w3.org/2000/svg"
 width="512.000000pt" height="512.000000pt" viewBox="0 0 512.000000 512.000000"
 preserveAspectRatio="xMidYMid meet">

<g transform="translate(0.000000,512.000000) scale(0.100000,-0.100000)"
fill="#000000" stroke="none">
<path d="M3664 4904 c3 -10 16 -44 29 -74 112 -250 119 -598 18 -842 -46 -110
-104 -203 -255 -408 -246 -336 -303 -468 -313 -732 -11 -249 41 -452 163 -640
40 -63 282 -324 291 -315 1 2 -13 35 -32 73 -98 199 -131 497 -80 716 40 175
100 286 299 556 70 95 149 209 176 253 145 238 183 528 109 829 -24 98 -100
261 -157 338 -73 97 -254 277 -248 246z"/>
<path d="M1545 4886 c39 -60 87 -218 106 -345 14 -103 6 -320 -15 -409 -43
-173 -96 -270 -295 -542 -207 -284 -269 -401 -306 -585 -19 -92 -21 -290 -4
-393 27 -166 100 -341 192 -461 38 -50 248 -264 253 -258 1 1 -15 38 -36 82
-74 156 -106 325 -97 523 11 268 64 391 328 752 249 343 311 494 310 764 0
249 -51 433 -168 610 -53 79 -234 271 -263 279 -17 4 -18 3 -5 -17z"/>
<path d="M2608 4904 c-4 -3 6 -34 22 -68 112 -251 121 -600 22 -842 -46 -113
-92 -188 -239 -390 -76 -104 -152 -211 -170 -239 -52 -82 -111 -215 -134 -300
-28 -104 -36 -312 -19 -438 23 -166 94 -343 185 -465 38 -51 256 -274 262
-268 2 2 -5 19 -16 37 -100 171 -146 474 -106 700 30 173 90 304 219 484 44
61 117 162 163 225 183 253 246 428 245 680 -2 265 -65 470 -201 650 -58 76
-224 243 -233 234z"/>
<path d="M4525 2118 c46 -54 111 -188 120 -248 4 -25 14 -56 22 -69 8 -13 10
-20 4 -17 -7 5 -11 -6 -11 -31 0 -56 -26 -149 -62 -220 -160 -315 -649 -575
-1298 -692 -261 -47 -378 -56 -740 -56 -362 0 -479 9 -740 56 -893 160 -1444
582 -1349 1031 15 71 58 162 102 221 21 26 37 50 37 53 0 2 -21 -7 -48 -23
-154 -89 -336 -245 -415 -356 -99 -139 -139 -256 -139 -402 1 -199 93 -372
293 -551 387 -347 1073 -575 1907 -635 216 -15 761 -7 942 15 799 96 1414 338
1746 687 108 114 182 246 209 374 19 90 19 138 -1 232 -41 201 -185 392 -420
557 -62 44 -181 116 -190 116 -3 0 11 -19 31 -42z"/>
</g>
</svg>
