<?xml version="1.0" standalone="no"?>
<!DOCTYPE svg PUBLIC "-//W3C//DTD SVG 20010904//EN"
 "http://www.w3.org/TR/2001/REC-SVG-20010904/DTD/svg10.dtd">
<svg version="1.0" xmlns="http://www.w3.org/2000/svg"
 width="512.000000pt" height="512.000000pt" viewBox="0 0 512.000000 512.000000"
 preserveAspectRatio="xMidYMid meet">

<g transform="translate(0.000000,512.000000) scale(0.100000,-0.100000)"
fill="#000000" stroke="none">
<path d="M3805 4204 c-369 -38 -587 -91 -811 -198 -141 -68 -237 -133 -345
-234 -145 -136 -253 -320 -306 -519 -34 -132 -43 -356 -19 -486 22 -114 68
-245 117 -330 21 -38 39 -71 39 -75 0 -3 -27 -74 -59 -157 -33 -83 -76 -207
-95 -275 -20 -69 -39 -132 -42 -140 -4 -11 -20 1 -59 44 l-53 60 23 67 c52
152 58 364 15 514 -85 298 -302 510 -633 620 -142 46 -264 66 -462 72 -330 10
-663 -47 -977 -169 -97 -37 -127 -61 -135 -110 -8 -51 9 -74 109 -143 152
-106 265 -238 343 -400 18 -39 59 -154 90 -255 85 -276 139 -376 267 -495 152
-140 326 -206 547 -206 236 0 447 83 617 244 l82 77 45 -52 c164 -195 319
-457 393 -667 l28 -78 98 25 c66 16 98 29 98 39 0 7 -21 66 -46 131 -47 121
-118 260 -187 370 l-40 64 13 71 c25 138 136 502 169 556 8 12 18 7 51 -23 87
-79 231 -160 365 -206 485 -168 1003 -10 1260 384 97 149 128 239 195 569 48
234 83 346 148 474 91 179 186 292 416 498 41 37 56 58 56 77 0 40 -16 75 -44
93 -59 39 -410 121 -646 151 -118 15 -537 27 -625 18z m635 -229 c105 -14 288
-48 334 -62 16 -4 11 -12 -31 -57 -77 -80 -136 -154 -196 -246 -129 -200 -178
-333 -248 -670 -74 -362 -123 -477 -260 -617 -241 -246 -625 -311 -987 -166
-82 33 -222 126 -281 186 l-43 45 48 88 c279 517 709 873 1216 1009 50 13 92
26 93 27 2 2 -6 47 -18 101 l-21 98 -30 -7 c-347 -75 -689 -259 -966 -521
-129 -121 -303 -344 -415 -532 l-39 -65 -19 45 c-90 211 -77 529 31 744 177
355 561 557 1177 619 96 9 545 -3 655 -19z m-3160 -1025 c470 -58 750 -326
750 -716 0 -54 -5 -116 -10 -136 l-11 -38 -101 86 c-251 210 -533 382 -851
518 -162 69 -147 72 -186 -34 -19 -53 -30 -95 -25 -100 5 -5 45 -23 89 -40
309 -122 679 -352 915 -570 l65 -60 -77 -74 c-85 -81 -194 -142 -308 -172 -77
-20 -251 -23 -325 -5 -96 23 -193 79 -267 153 -86 86 -137 188 -198 398 -78
268 -167 432 -324 597 -70 74 -83 92 -69 97 59 17 217 56 268 67 179 36 494
50 665 29z"/>
</g>
</svg>
