<svg version="1.1" id="Layer_1" xmlns="http://www.w3.org/2000/svg" xmlns:xlink="http://www.w3.org/1999/xlink" x="0px" y="0px"
	 width="100%" viewBox="0 0 360 360" enable-background="new 0 0 360 360" xml:space="preserve">
<path fill="none" opacity="1.000000" stroke="#000000" stroke-linecap="round" stroke-linejoin="round" stroke-width="5.000000"
	d="
M180.500000,83.500000 
	C171.880951,84.449394 164.702316,87.803024 159.979874,95.487633 
	C157.316925,99.820946 156.489883,104.531815 156.494583,109.500008 
	C156.509293,125.083771 156.500000,140.667557 156.500000,156.046524 
	C154.433044,157.264435 152.444626,156.994080 150.500000,156.995255 
	C136.000000,157.004013 121.496544,157.196304 107.001038,156.941086 
	C94.223923,156.716110 82.745186,166.842560 82.647499,181.001022 
	C82.550262,195.095673 94.234360,205.275146 107.000977,205.057159 
	C121.496750,204.809692 136.000031,204.987076 150.499969,205.015472 
	C152.434296,205.019272 154.456726,204.553955 156.500000,206.150803 
	C156.500000,221.332443 156.500931,236.916229 156.499680,252.500000 
	C156.498810,263.317169 160.948303,271.181427 170.965256,276.071167 
	C184.784470,282.817047 203.280441,273.381470 205.030991,258.003540 
	C205.884872,250.502396 205.375961,242.999802 205.470383,235.499634 
	C205.592056,225.834488 205.497360,216.166672 205.511246,206.500015 
	C205.511719,206.168060 205.677887,205.836334 205.654755,205.922638 
	C207.613525,204.722183 209.573044,205.008011 211.500000,205.006470 
	C226.166672,204.994644 240.833527,204.952179 255.499939,205.014450 
	C268.302704,205.068817 279.166412,195.115311 279.343445,180.998032 
	C279.516449,167.202957 267.922089,156.836060 255.499634,156.964447 
	C240.834534,157.116013 226.166672,157.006927 211.500015,156.991318 
	C209.641434,156.989334 207.716400,157.357513 205.500000,155.878281 
	C205.500000,151.675766 205.577240,147.086334 205.485229,142.500290 
	C205.231079,129.834488 206.102386,117.154793 205.001923,104.499832 
	C204.140808,94.597351 196.057709,85.536926 184.000641,83.994957 
	C182.995773,83.866447 182.000000,83.666672 181.000000,83.500000 
"/>
</svg>