<?xml version="1.0" standalone="no"?>
<!DOCTYPE svg PUBLIC "-//W3C//DTD SVG 20010904//EN"
 "http://www.w3.org/TR/2001/REC-SVG-20010904/DTD/svg10.dtd">
<svg version="1.0" xmlns="http://www.w3.org/2000/svg"
 width="512.000000pt" height="512.000000pt" viewBox="0 0 512.000000 512.000000"
 preserveAspectRatio="xMidYMid meet">

<g transform="translate(0.000000,512.000000) scale(0.100000,-0.100000)"
fill="#000000" stroke="none">
<path d="M462 5103 c-63 -31 -92 -94 -77 -170 6 -32 33 -65 163 -196 87 -87
169 -165 184 -173 94 -49 218 25 218 132 0 58 -37 109 -192 261 -165 163 -214
187 -296 146z"/>
<path d="M2270 5110 c-118 -21 -209 -76 -287 -175 -22 -28 -854 -1754 -959
-1990 -5 -11 -11 -373 -14 -805 -7 -861 -5 -832 -68 -960 -16 -30 -171 -259
-346 -508 -193 -275 -322 -468 -326 -488 -16 -72 31 -155 98 -174 24 -6 311
-10 801 -10 746 0 766 0 805 20 23 11 48 30 57 43 131 185 456 686 493 761
l48 99 59 -114 c72 -138 483 -755 522 -784 28 -20 42 -20 790 -23 419 -2 777
0 795 3 76 14 132 104 110 181 -5 20 -148 241 -317 492 -170 251 -317 475
-329 497 -58 116 -56 81 -62 940 -4 623 -8 797 -19 825 -7 19 -221 471 -475
1005 -426 895 -465 974 -514 1027 -136 146 -335 188 -514 106 l-47 -21 -48 21
c-49 21 -150 43 -187 41 -12 -1 -41 -5 -66 -9z m94 -298 c3 -5 0 -39 -6 -77
-13 -78 -1 -172 31 -247 l19 -45 -312 -695 c-172 -382 -321 -717 -332 -744
-17 -45 -19 -89 -22 -539 -3 -434 -1 -494 13 -532 41 -107 190 -124 259 -30
20 28 21 43 26 522 l5 493 30 43 c17 23 47 51 67 61 45 24 134 26 176 4 42
-22 90 -80 97 -118 3 -18 4 -355 2 -748 -3 -698 -4 -717 -26 -815 -57 -255
-126 -395 -374 -765 l-184 -275 -562 -3 c-308 -1 -561 1 -561 4 0 3 103 153
229 332 253 363 269 388 306 486 59 157 58 136 62 965 l4 765 451 945 c248
520 458 955 467 965 31 36 122 68 135 48z m528 -24 c28 -21 104 -175 488 -979
l455 -954 5 -780 c5 -769 6 -781 28 -860 37 -132 82 -211 315 -558 123 -183
227 -338 231 -344 6 -10 -106 -13 -547 -13 l-555 0 -183 278 c-101 152 -209
328 -241 391 -90 177 -136 338 -157 550 -15 139 -15 1343 0 1394 44 160 276
183 348 35 20 -43 21 -56 21 -504 0 -281 4 -473 10 -496 13 -45 68 -95 116
-104 51 -9 122 21 151 65 l23 34 0 491 c0 395 -3 503 -14 546 -8 30 -177 417
-376 859 -328 729 -362 808 -357 844 6 47 31 83 78 115 44 31 113 26 161 -10z
m-153 -1079 l160 -354 -66 -12 c-80 -15 -176 -58 -225 -101 l-35 -32 -39 31
c-56 45 -159 90 -221 96 -30 3 -56 9 -59 14 -2 4 57 144 132 311 75 167 147
327 160 357 13 30 26 52 29 49 3 -2 77 -164 164 -359z"/>
<path d="M4530 5104 c-42 -18 -291 -262 -331 -323 -50 -77 -32 -165 43 -211
39 -23 107 -26 146 -6 15 8 97 86 184 173 129 132 158 165 163 196 24 128 -88
222 -205 171z"/>
<path d="M69 4307 c-97 -64 -88 -206 15 -257 43 -20 56 -21 273 -18 220 3 229
4 261 26 42 30 65 76 65 130 0 49 -22 85 -73 120 -32 21 -41 22 -270 22 -230
0 -238 -1 -271 -23z"/>
<path d="M4503 4260 c-42 -25 -63 -68 -63 -127 0 -58 26 -105 72 -130 29 -16
61 -18 270 -18 223 0 238 1 264 21 94 70 96 190 5 251 -33 22 -41 23 -275 23
-221 0 -244 -2 -273 -20z"/>
<path d="M742 3755 c-41 -18 -292 -262 -333 -324 -50 -77 -32 -165 43 -211 39
-24 107 -26 146 -6 15 8 97 86 184 173 167 169 179 188 164 267 -17 90 -116
139 -204 101z"/>
<path d="M4252 3753 c-61 -30 -95 -109 -77 -180 7 -31 301 -335 347 -359 69
-36 165 -4 200 66 27 52 23 99 -11 151 -38 57 -286 301 -328 322 -40 21 -89
21 -131 0z"/>
</g>
</svg>
