<?xml version="1.0" standalone="no"?>
<!DOCTYPE svg PUBLIC "-//W3C//DTD SVG 20010904//EN"
 "http://www.w3.org/TR/2001/REC-SVG-20010904/DTD/svg10.dtd">
<svg version="1.0" xmlns="http://www.w3.org/2000/svg"
 width="512.000000pt" height="512.000000pt" viewBox="0 0 512.000000 512.000000"
 preserveAspectRatio="xMidYMid meet">

<g transform="translate(0.000000,512.000000) scale(0.100000,-0.100000)"
fill="#000000" stroke="none">
<path d="M3855 4903 c-33 -2 -123 -10 -200 -19 -823 -90 -1370 -450 -1486
-977 -29 -130 -23 -329 15 -477 56 -226 20 -378 -127 -537 -257 -275 -837
-456 -1637 -513 -80 -5 -188 -10 -241 -10 -83 0 -101 -3 -130 -23 -47 -32 -61
-85 -34 -136 30 -54 58 -59 280 -50 657 25 1300 175 1662 387 100 59 224 153
274 210 178 200 220 380 165 707 -44 266 -44 357 4 493 106 300 463 547 950
656 427 95 972 101 1522 16 169 -27 174 -26 214 14 38 38 44 77 19 126 -20 39
-36 46 -141 64 -342 59 -782 86 -1109 69z"/>
<path d="M4450 4290 c-336 -26 -588 -98 -736 -210 -132 -99 -183 -266 -138
-449 23 -94 75 -201 201 -411 175 -294 228 -415 259 -594 62 -355 -118 -742
-540 -1161 -546 -541 -1304 -875 -2256 -994 -276 -35 -491 -44 -800 -36 -157
4 -307 8 -333 9 -43 1 -52 -3 -78 -32 -48 -54 -31 -140 35 -167 60 -25 453
-39 740 -26 544 24 995 103 1437 251 576 193 1021 462 1409 850 346 346 536
657 596 978 23 121 15 345 -15 460 -44 170 -99 285 -274 581 -162 275 -203
385 -178 478 23 83 91 136 236 182 195 63 546 98 841 86 171 -7 192 -4 226 39
35 43 16 126 -35 153 -36 18 -418 27 -597 13z"/>
<path d="M2232 2410 c-44 -10 -70 -36 -78 -77 -13 -70 42 -133 117 -133 22 0
70 -18 130 -47 l94 -48 116 0 115 0 96 48 c127 63 160 63 283 2 194 -97 325
-81 325 40 0 64 -35 99 -108 109 -32 4 -88 24 -140 51 -152 78 -268 79 -421 4
-121 -60 -173 -63 -263 -16 -111 58 -202 81 -266 67z"/>
<path d="M873 2015 c-33 -14 -63 -59 -63 -95 0 -59 60 -110 128 -110 16 0 71
-21 123 -47 l94 -48 116 0 115 0 95 48 c126 63 158 63 293 0 85 -40 113 -48
173 -51 72 -4 73 -4 109 32 33 33 36 40 31 78 -8 57 -40 86 -107 97 -30 5 -93
28 -140 50 -163 78 -273 77 -436 -5 -116 -58 -150 -57 -275 4 -75 37 -161 63
-208 62 -9 -1 -30 -7 -48 -15z"/>
<path d="M1618 1471 c-39 -31 -53 -80 -34 -124 17 -41 51 -62 117 -70 25 -3
81 -25 125 -47 149 -77 268 -75 428 5 121 60 151 60 271 0 148 -74 256 -80
305 -18 24 31 26 90 4 122 -19 27 -71 51 -111 51 -15 0 -71 21 -122 47 l-95
48 -115 0 -116 0 -94 -47 c-128 -65 -164 -65 -292 -1 -81 40 -105 47 -169 51
-65 4 -78 1 -102 -17z"/>
<path d="M139 1041 c-68 -68 -16 -181 83 -181 20 0 70 -18 124 -45 164 -81
274 -82 434 -4 124 61 156 62 277 6 112 -52 182 -71 233 -62 52 10 78 30 91
74 9 31 9 44 -5 72 -20 43 -44 58 -104 65 -26 4 -89 27 -141 53 l-95 46 -111
0 -111 0 -97 -47 c-122 -61 -174 -64 -263 -17 -87 47 -160 69 -226 69 -52 0
-63 -4 -89 -29z"/>
</g>
</svg>
