<?xml version="1.0" standalone="no"?>
<!DOCTYPE svg PUBLIC "-//W3C//DTD SVG 20010904//EN"
 "http://www.w3.org/TR/2001/REC-SVG-20010904/DTD/svg10.dtd">
<svg version="1.0" xmlns="http://www.w3.org/2000/svg"
 width="512.000000pt" height="512.000000pt" viewBox="0 0 512.000000 512.000000"
 preserveAspectRatio="xMidYMid meet">

<g transform="translate(0.000000,512.000000) scale(0.100000,-0.100000)"
fill="#000000" stroke="none">
<path d="M2420 4784 c-177 -38 -348 -171 -429 -334 -85 -173 -93 -359 -26
-555 28 -79 101 -192 151 -233 l34 -28 -113 -44 c-325 -125 -578 -292 -593
-391 -7 -49 24 -92 88 -125 156 -79 316 -218 393 -343 l38 -61 596 0 597 0 49
76 c80 121 231 251 383 328 105 53 117 125 35 208 -111 113 -311 225 -569 319
l-82 30 48 49 c116 119 180 290 180 480 -1 237 -142 466 -350 569 -139 68
-284 87 -430 55z"/>
<path d="M1541 2434 c-51 -36 -51 -31 -51 -779 l0 -695 1070 0 1070 0 0 695
c0 748 0 743 -51 779 -21 15 -115 16 -1019 16 -904 0 -998 -1 -1019 -16z
m1594 -418 c61 -26 65 -47 65 -311 0 -257 -4 -280 -57 -304 -33 -15 -1133 -15
-1166 0 -53 24 -57 47 -57 304 0 263 5 285 63 310 48 21 1102 22 1152 1z"/>
<path d="M1343 735 c-55 -24 -65 -58 -61 -216 3 -136 3 -139 31 -166 l27 -28
1220 0 1220 0 27 28 c28 27 28 30 31 166 4 160 -6 193 -63 217 -50 21 -2384
20 -2432 -1z"/>
</g>
</svg>
