<?xml version="1.0" standalone="no"?>
<!DOCTYPE svg PUBLIC "-//W3C//DTD SVG 20010904//EN"
 "http://www.w3.org/TR/2001/REC-SVG-20010904/DTD/svg10.dtd">
<svg version="1.0" xmlns="http://www.w3.org/2000/svg"
 width="512.000000pt" height="512.000000pt" viewBox="0 0 512.000000 512.000000"
 preserveAspectRatio="xMidYMid meet">

<g transform="translate(0.000000,512.000000) scale(0.100000,-0.100000)"
fill="#000000" stroke="none">
<path d="M1126 5090 c-112 -36 -211 -125 -250 -225 -8 -22 -49 -176 -91 -342
l-75 -303 0 -157 c0 -168 10 -224 51 -310 33 -66 132 -164 197 -194 l52 -24 0
-562 0 -563 -460 0 c-493 0 -499 -1 -526 -51 -18 -35 -18 -63 0 -98 26 -49 43
-51 376 -51 l310 0 0 -810 c0 -606 3 -816 12 -835 23 -52 44 -55 331 -55 l264
0 17 -62 c28 -101 74 -176 156 -259 149 -149 341 -207 545 -164 210 44 393
216 451 423 l17 62 903 0 902 0 4 -138 c4 -152 17 -196 77 -265 82 -92 237
-121 353 -64 64 32 111 80 142 146 17 38 21 71 24 183 l4 138 59 0 c69 0 110
18 127 55 9 19 12 243 12 896 0 945 2 911 -55 937 -15 7 -72 12 -135 12 l-110
0 0 563 0 562 65 34 c111 57 197 172 224 299 6 29 11 120 11 203 0 138 -4 174
-55 455 -40 221 -62 321 -81 360 -46 98 -147 181 -256 210 -45 12 -332 14
-1793 13 -1677 0 -1742 -1 -1799 -19z m404 -187 c0 -5 -23 -140 -52 -300 l-52
-293 -243 0 c-134 0 -243 2 -243 5 0 13 111 445 120 471 16 41 58 83 105 105
34 16 66 19 203 19 89 0 162 -3 162 -7z m650 -16 c0 -13 -13 -146 -30 -297
-16 -151 -30 -275 -30 -277 0 -2 -111 -3 -246 -3 l-246 0 6 28 c3 15 26 144
51 287 25 143 48 266 50 273 3 9 57 12 225 12 l220 0 0 -23z m646 -244 c-4
-148 -10 -283 -13 -300 l-5 -33 -245 0 -245 0 5 33 c3 17 18 147 32 287 15
140 28 261 30 268 3 9 57 12 226 12 l222 0 -7 -267z m668 0 c4 -148 10 -283
13 -300 l5 -33 -252 0 -252 0 5 33 c3 17 9 152 13 300 l7 267 227 0 227 0 7
-267z m668 12 c14 -137 29 -271 32 -297 l5 -48 -243 0 -244 0 -5 33 c-3 17 -9
152 -13 300 l-7 267 224 -2 224 -3 27 -250z m533 236 c46 -21 89 -64 104 -104
6 -15 27 -116 46 -225 19 -108 38 -209 41 -224 l6 -28 -246 0 c-135 0 -246 1
-246 3 0 2 -13 126 -30 277 -16 151 -30 284 -30 297 l0 23 158 0 c131 0 163
-3 197 -19z m-3285 -874 c0 -118 -19 -176 -75 -232 -45 -45 -115 -75 -175 -75
-60 0 -130 30 -175 75 -56 56 -75 114 -75 232 l0 93 250 0 250 0 0 -93z m700
0 c0 -118 -19 -176 -75 -232 -98 -98 -252 -98 -350 0 -56 56 -75 114 -75 232
l0 93 250 0 250 0 0 -93z m700 0 c0 -118 -19 -176 -75 -232 -98 -98 -252 -98
-350 0 -56 56 -75 114 -75 232 l0 93 250 0 250 0 0 -93z m700 0 c0 -118 -19
-176 -75 -232 -98 -98 -252 -98 -350 0 -56 56 -75 114 -75 232 l0 93 250 0
250 0 0 -93z m700 0 c0 -118 -19 -176 -75 -232 -98 -98 -252 -98 -350 0 -56
56 -75 114 -75 232 l0 93 250 0 250 0 0 -93z m700 0 c0 -118 -19 -176 -75
-232 -98 -98 -252 -98 -350 0 -56 56 -75 114 -75 232 l0 93 250 0 250 0 0 -93z
m-3351 -390 c171 -153 431 -153 603 1 l48 44 48 -44 c172 -154 432 -154 604 0
l48 44 48 -44 c172 -154 432 -154 604 0 l48 44 48 -44 c172 -154 432 -154 604
0 l48 44 44 -40 c53 -49 133 -91 201 -107 l50 -12 3 -551 2 -552 -99 0 -99 0
-4 138 c-4 152 -17 196 -77 265 -82 92 -237 121 -353 64 -64 -32 -111 -80
-142 -146 -17 -38 -21 -71 -24 -183 l-4 -138 -98 0 -98 0 -4 138 c-3 112 -7
145 -24 183 -31 66 -78 114 -142 146 -47 23 -70 28 -132 28 -124 -1 -214 -56
-267 -163 -26 -52 -28 -68 -31 -194 l-4 -138 -98 0 -98 0 -4 133 c-3 108 -7
141 -25 178 -30 66 -86 124 -151 156 l-57 28 -465 0 c-454 0 -466 -1 -511 -21
-67 -31 -124 -87 -156 -152 -26 -52 -28 -69 -31 -189 l-4 -133 -99 0 -99 0 2
552 3 551 50 12 c66 15 164 68 206 111 18 19 35 34 37 34 2 0 25 -19 51 -43z
m991 -932 c48 -25 60 -61 60 -180 l0 -105 -500 0 -500 0 0 105 c0 118 12 154
58 179 41 23 839 23 882 1z m809 1 c41 -22 51 -55 51 -176 l0 -110 -100 0
-100 0 0 113 c1 120 9 150 51 173 31 17 64 17 98 0z m800 0 c41 -22 51 -55 51
-176 l0 -110 -100 0 -100 0 0 113 c1 120 9 150 51 173 31 17 64 17 98 0z m751
-636 l0 -150 -2000 0 -2000 0 0 150 0 150 2000 0 2000 0 0 -150z m0 -850 l0
-500 -1203 0 -1203 0 -22 73 c-73 247 -314 427 -572 427 -258 0 -499 -180
-572 -427 l-22 -73 -203 0 -203 0 0 500 0 500 2000 0 2000 0 0 -500z m-2836
-238 c91 -42 149 -100 194 -190 35 -72 37 -81 37 -172 0 -91 -2 -100 -37 -172
-45 -91 -103 -147 -196 -191 -61 -29 -76 -32 -162 -32 -86 0 -101 3 -160 31
-95 46 -153 101 -197 192 -36 72 -38 81 -38 171 0 87 3 102 32 163 40 85 97
147 172 186 78 42 122 52 213 48 61 -3 92 -11 142 -34z m2636 -572 c0 -121
-10 -154 -51 -176 -35 -18 -63 -18 -98 0 -41 22 -51 55 -51 176 l0 110 100 0
100 0 0 -110z"/>
</g>
</svg>
